HIERARCHY
ROOT Hips
{
	OFFSET 54.876400 -4.267254 84.473099
	CHANNELS 6 Xposition Yposition Zposition Xrotation Yrotation Zrotation
	JOINT spine
	{
		OFFSET 0.000000 -0.342408 5.954376
		CHANNELS 3 Xrotation Yrotation Zrotation
		JOINT spine1
		{
			OFFSET 0.000000 -0.000001 8.856018
			CHANNELS 3 Xrotation Yrotation Zrotation
			JOINT spine2
			{
				OFFSET 0.000000 -0.000001 8.485672
				CHANNELS 3 Xrotation Yrotation Zrotation
				JOINT Neck
				{
					OFFSET 0.000000 -1.038703 21.786301
					CHANNELS 3 Xrotation Yrotation Zrotation
					JOINT Head
					{
						OFFSET 0.000000 -0.000001 6.582199
						CHANNELS 3 Xrotation Yrotation Zrotation
						End Site
						{
							OFFSET 0.000000 5.254358 15.932602
						}
					}
				}
				JOINT RightShoulder
				{
					OFFSET -3.573071 0.497524 9.163864
					CHANNELS 3 Xrotation Yrotation Zrotation
					JOINT RightArm
					{
						OFFSET 0.000000 -0.000002 12.019196
						CHANNELS 3 Xrotation Yrotation Zrotation
						JOINT RightArmRoll
						{
							OFFSET 0.000000 -0.000001 6.067535
							CHANNELS 3 Xrotation Yrotation Zrotation
							JOINT RightForeArm
							{
								OFFSET 0.000000 -0.000003 17.672592
								CHANNELS 3 Xrotation Yrotation Zrotation
								JOINT RightForeArmRoll
								{
									OFFSET 0.000000 -0.000001 6.808716
									CHANNELS 3 Xrotation Yrotation Zrotation
									JOINT RightHand
									{
										OFFSET 0.000000 -0.000002 13.663605
										CHANNELS 3 Xrotation Yrotation Zrotation
										End Site
										{
											OFFSET 0.000000 0.000000 0.100006
										}
									}
								}
							}
						}
					}
				}
				JOINT LeftShoulder
				{
					OFFSET 3.573071 0.497524 9.163864
					CHANNELS 3 Xrotation Yrotation Zrotation
					JOINT LeftArm
					{
						OFFSET 0.000000 -0.000002 12.019196
						CHANNELS 3 Xrotation Yrotation Zrotation
						JOINT LeftArmRoll
						{
							OFFSET 0.000000 -0.000001 6.067551
							CHANNELS 3 Xrotation Yrotation Zrotation
							JOINT LeftForeArm
							{
								OFFSET 0.000000 -0.000003 17.672607
								CHANNELS 3 Xrotation Yrotation Zrotation
								JOINT LeftForeArmRoll
								{
									OFFSET 0.000000 -0.000001 6.808716
									CHANNELS 3 Xrotation Yrotation Zrotation
									JOINT LeftHand
									{
										OFFSET 0.000000 -0.000002 13.663605
										CHANNELS 3 Xrotation Yrotation Zrotation
										End Site
										{
											OFFSET 0.000000 0.000000 0.100006
										}
									}
								}
							}
						}
					}
				}
			}
		}
	}
	JOINT RightUpLeg
	{
		OFFSET -5.277740 0.811858 -0.967796
		CHANNELS 3 Xrotation Yrotation Zrotation
		JOINT RightUpLegRoll
		{
			OFFSET 0.000000 -0.000003 16.021400
			CHANNELS 3 Xrotation Yrotation Zrotation
			JOINT RightLeg
			{
				OFFSET 0.000000 0.000003 -19.840103
				CHANNELS 3 Xrotation Yrotation Zrotation
				JOINT RightLegRoll
				{
					OFFSET 0.000000 -0.000003 19.904999
					CHANNELS 3 Xrotation Yrotation Zrotation
					JOINT RightFoot
					{
						OFFSET 0.000000 -0.000003 16.567497
						CHANNELS 3 Xrotation Yrotation Zrotation
						JOINT RightToeBase
						{
							OFFSET 0.000000 -0.000002 13.849602
							CHANNELS 3 Xrotation Yrotation Zrotation
							End Site
							{
								OFFSET 0.005871 0.773116 6.707275
							}
						}
					}
				}
			}
		}
	}
	JOINT LeftUpLeg
	{
		OFFSET 5.277740 0.811858 -0.967796
		CHANNELS 3 Xrotation Yrotation Zrotation
		JOINT LeftUpLegRoll
		{
			OFFSET 0.000000 -0.000003 16.021500
			CHANNELS 3 Xrotation Yrotation Zrotation
			JOINT LeftLeg
			{
				OFFSET 0.000000 -0.000003 19.840004
				CHANNELS 3 Xrotation Yrotation Zrotation
				JOINT LeftLegRoll
				{
					OFFSET 0.000000 -0.000003 20.089005
					CHANNELS 3 Xrotation Yrotation Zrotation
					JOINT LeftFoot
					{
						OFFSET 0.000000 -0.000003 16.383499
						CHANNELS 3 Xrotation Yrotation Zrotation
						JOINT LeftToeBase
						{
							OFFSET 0.000000 -0.000002 13.849594
							CHANNELS 3 Xrotation Yrotation Zrotation
							End Site
							{
								OFFSET -0.026310 0.773116 6.707275
							}
						}
					}
				}
			}
		}
	}
}
MOTION
Frames: 5
Frame Time: 0.041667
54.840805 -2.767035 84.441002 -11.404741 -1.023027 -1.685145 0.195132 -0.068276 0.058681 4.393161 -0.135778 0.119962 6.038227 -0.134371 0.120889 10.345904 5.644105 -0.794687 5.969163 -6.477221 -0.721516 1.339328 -74.435552 -0.283104 -52.640326 -114.147822 -56.848740 -0.000001 -0.000003 0.000002 -0.027850 3.642969 -1.990850 -0.000002 -0.000013 -3.011610 -5.000172 -7.999937 0.000010 -11.406028 70.980132 13.975830 -42.631507 118.806373 51.061548 0.000000 0.000000 -0.000001 -0.027388 -3.640969 1.990640 -0.000003 -0.000021 3.011601 -5.000164 7.999918 -0.000009 3.747017 -176.760924 5.143556 -179.999991 0.000005 -1.227995 168.714442 -2.641983 -0.648026 0.000004 -0.000002 0.169569 70.102043 6.878837 2.091017 25.456957 -7.355614 -0.000000 4.721121 -179.902333 0.167732 -0.000005 -0.000004 -1.228740 -10.612015 1.836584 0.460073 0.000004 -0.000005 -0.189207 70.698953 -6.854056 -2.113947 25.456955 7.355613 0.000000 
54.838802 -2.768085 84.448296 -11.402147 -1.024488 -1.687141 0.194372 -0.067950 0.058681 4.391644 -0.135162 0.119962 6.036706 -0.133755 0.120889 10.339933 5.652960 -0.798042 5.974859 -6.493369 -0.723927 1.340948 -74.438646 -0.281713 -52.645585 -114.147453 -56.853388 0.000001 -0.000003 0.000002 -0.027848 3.642970 -1.990850 -0.000001 -0.000012 -3.011608 -5.000171 -7.999937 0.000011 -11.381916 70.995534 13.949786 -42.658896 118.792726 51.074085 0.000000 0.000000 -0.000000 -0.027387 -3.640969 1.990640 -0.000001 -0.000021 3.011600 -5.000162 7.999918 -0.000010 3.742092 -176.757905 5.146044 -179.999991 0.000005 -1.227994 168.712120 -2.644910 -0.648720 0.000005 -0.000003 0.169530 70.103101 6.878860 2.090955 25.456955 -7.355613 -0.000000 4.715690 -179.899342 0.170563 -0.000005 -0.000004 -1.228740 -10.616511 1.835545 0.460044 0.000004 -0.000005 -0.189234 70.701303 -6.854073 -2.113906 25.456952 7.355613 -0.000000 
54.797005 -2.807965 84.454399 -11.399554 -1.025977 -1.689113 0.193602 -0.067623 0.058680 4.390102 -0.134545 0.119962 6.035167 -0.133139 0.120888 10.333867 5.662152 -0.801459 5.980843 -6.509919 -0.726381 1.342428 -74.442136 -0.280527 -52.649267 -114.147761 -56.856209 -0.000001 -0.000003 0.000002 -0.027849 3.642970 -1.990850 -0.000000 -0.000012 -3.011610 -5.000172 -7.999937 0.000010 -11.356683 71.011120 13.922501 -42.685079 118.779817 51.085427 0.000001 -0.000000 -0.000000 -0.027384 -3.640969 1.990640 -0.000002 -0.000021 3.011601 -5.000161 7.999916 -0.000009 3.737206 -176.753917 5.148606 -179.999991 0.000005 -1.227995 168.709989 -2.647823 -0.648407 0.000004 -0.000002 0.169474 70.104167 6.878855 2.090987 25.456955 -7.355613 0.000000 4.710161 -179.897361 0.173348 -0.000005 -0.000004 -1.228740 -10.621106 1.834495 0.459999 0.000004 -0.000005 -0.189240 70.703748 -6.854059 -2.113951 25.456952 7.355613 0.000000 
54.805702 -2.800004 84.454796 -11.396955 -1.027487 -1.691069 0.192826 -0.067295 0.058681 4.388551 -0.133928 0.119962 6.033626 -0.132523 0.120888 10.327707 5.671582 -0.804915 5.987032 -6.526764 -0.728856 1.343826 -74.446029 -0.279474 -52.652754 -114.148000 -56.858815 -0.000000 -0.000003 0.000002 -0.027848 3.642969 -1.990850 -0.000003 -0.000013 -3.011610 -5.000171 -7.999936 0.000011 -11.330565 71.026645 13.894239 -42.710973 118.766799 51.096731 0.000001 0.000000 -0.000000 -0.027387 -3.640969 1.990641 -0.000002 -0.000020 3.011601 -5.000163 7.999918 -0.000009 3.732350 -176.750898 5.151117 -179.999991 0.000005 -1.227994 168.708049 -2.650752 -0.648085 0.000004 -0.000003 0.169404 70.105123 6.878844 2.091029 25.456957 -7.355614 0.000001 4.704571 -179.894356 0.176242 -0.000005 -0.000004 -1.228740 -10.625702 1.833446 0.459942 0.000004 -0.000005 -0.189230 70.706091 -6.854076 -2.113910 25.456950 7.355613 0.000000 
54.844505 -2.764714 84.448296 -11.394361 -1.028996 -1.693005 0.192049 -0.066966 0.058680 4.387003 -0.133311 0.119962 6.032077 -0.131905 0.120888 10.321449 5.681161 -0.808389 5.993348 -6.543779 -0.731336 1.345168 -74.450121 -0.278507 -52.658026 -114.147631 -56.863360 0.000001 -0.000003 0.000001 -0.027849 3.642969 -1.990849 -0.000002 -0.000012 -3.011610 -5.000172 -7.999938 0.000011 -11.304009 71.042293 13.865497 -42.738119 118.753057 51.109558 0.000000 0.000000 -0.000000 -0.027385 -3.640970 1.990640 -0.000002 -0.000021 3.011600 -5.000161 7.999917 -0.000011 3.727504 -176.747879 5.153629 -179.999991 0.000005 -1.227994 168.706123 -2.653682 -0.647752 0.000004 -0.000003 0.169327 70.106086 6.878866 2.090973 25.456955 -7.355613 0.000001 4.698932 -179.891364 0.179151 -0.000005 -0.000004 -1.228740 -10.630400 1.832385 0.459879 0.000004 -0.000005 -0.189213 70.708536 -6.854059 -2.113958 25.456952 7.355613 0.000000 
